<svg width="1181" height="837" viewBox="0 0 1181 837" fill="none" xmlns="http://www.w3.org/2000/svg">
<path d="M756.96 51.0812L757.396 51.5H758H1110.38L1179.5 120.621V124V269.393L1149.92 299.957L1149.5 300.393V301V453V453.607L1149.92 454.043L1179.5 484.607V774V806.35L1148.41 835.5H799.652L772.097 805.977L771.652 805.5H771H655H654.297L653.848 806.04L629.297 835.5H406.668L380.115 805.997L379.668 805.5H379H164H163.297L162.848 806.04L138.297 835.5H30.6213L1.5 806.379V774V663.607L31.0779 633.043L31.5 632.607V632V585V584.393L31.0779 583.957L1.5 553.393V435.636L31.0425 407.078L31.5 406.636V406V220V219.364L31.0425 218.922L1.5 190.364V124V30.6213L30.6213 1.5H705.396L756.96 51.0812Z" fill="#24292F"/>
<path d="M756.96 51.0812L757.396 51.5H758H1110.38L1179.5 120.621V124V269.393L1149.92 299.957L1149.5 300.393V301V453V453.607L1149.92 454.043L1179.5 484.607V774V806.35L1148.41 835.5H799.652L772.097 805.977L771.652 805.5H771H655H654.297L653.848 806.04L629.297 835.5H406.668L380.115 805.997L379.668 805.5H379H164H163.297L162.848 806.04L138.297 835.5H30.6213L1.5 806.379V774V663.607L31.0779 633.043L31.5 632.607V632V585V584.393L31.0779 583.957L1.5 553.393V435.636L31.0425 407.078L31.5 406.636V406V220V219.364L31.0425 218.922L1.5 190.364V124V30.6213L30.6213 1.5H705.396L756.96 51.0812Z" fill="url(#paint0_radial_2159_73)" fill-opacity="0.2"/>
<path d="M756.96 51.0812L757.396 51.5H758H1110.38L1179.5 120.621V124V269.393L1149.92 299.957L1149.5 300.393V301V453V453.607L1149.92 454.043L1179.5 484.607V774V806.35L1148.41 835.5H799.652L772.097 805.977L771.652 805.5H771H655H654.297L653.848 806.04L629.297 835.5H406.668L380.115 805.997L379.668 805.5H379H164H163.297L162.848 806.04L138.297 835.5H30.6213L1.5 806.379V774V663.607L31.0779 633.043L31.5 632.607V632V585V584.393L31.0779 583.957L1.5 553.393V435.636L31.0425 407.078L31.5 406.636V406V220V219.364L31.0425 218.922L1.5 190.364V124V30.6213L30.6213 1.5H705.396L756.96 51.0812Z" stroke="#ABABAB" stroke-width="3"/>
<path d="M321 22.999H621L596 47.999H296L321 22.999Z" fill="#ABABAB"/>
<path d="M37.3614 14H52.4165L30.0934 39H14L37.3614 14Z" fill="#ABABAB"/>
<path d="M182.102 14H197.157L174.834 39H158.74L182.102 14Z" fill="#ABABAB"/>
<path d="M268.945 14H284L261.677 39H245.584L268.945 14Z" fill="#ABABAB"/>
<path d="M239.997 14H255.052L232.729 39H216.636L239.997 14Z" fill="#ABABAB"/>
<path d="M211.049 14H226.104L203.781 39H187.688L211.049 14Z" fill="#ABABAB"/>
<path d="M153.153 14H168.208L145.885 39H129.792L153.153 14Z" fill="#ABABAB"/>
<path d="M124.205 14H139.26L116.937 39H100.844L124.205 14Z" fill="#ABABAB"/>
<path d="M95.2569 14H110.312L87.9889 39H71.8955L95.2569 14Z" fill="#ABABAB"/>
<path d="M66.3096 14H81.3647L59.0416 39H42.9482L66.3096 14Z" fill="#ABABAB"/>
<path d="M631.546 22.999H646.719L624.22 47.999H608L631.546 22.999Z" fill="#ABABAB"/>
<path d="M682.826 22.999H698L675.501 47.999H659.28L682.826 22.999Z" fill="#ABABAB"/>
<path d="M657.186 22.999H672.36L649.861 47.999H633.641L657.186 22.999Z" fill="#ABABAB"/>
<path d="M14 54.4996H269L312.191 11.1875" stroke="#ABABAB" stroke-width="3"/>
<path d="M820 818H1136.5L1163.5 791" stroke="#ABABAB" stroke-width="3"/>
<path d="M936.227 785H953L932.773 806H916L936.227 785Z" fill="#ABABAB"/>
<path d="M992.227 785H1009L988.773 806H972L992.227 785Z" fill="#ABABAB"/>
<path d="M1048.23 785H1065L1044.77 806H1028L1048.23 785Z" fill="#ABABAB"/>
<path d="M1104.23 785H1121L1100.77 806H1084L1104.23 785Z" fill="#ABABAB"/>
<path d="M964.227 785H981L960.773 806H944L964.227 785Z" fill="#ABABAB"/>
<path d="M1020.23 785H1037L1016.77 806H1000L1020.23 785Z" fill="#ABABAB"/>
<path d="M1076.23 785H1093L1072.77 806H1056L1076.23 785Z" fill="#ABABAB"/>
<path d="M1132.23 785H1149L1128.77 806H1112L1132.23 785Z" fill="#ABABAB"/>
<path d="M871.227 785H925.004L904.777 806H851L871.227 785Z" fill="#ABABAB"/>
<path d="M843.227 785H860L839.773 806H823L843.227 785Z" fill="#ABABAB"/>
<path d="M51.7734 821H36.1725L16.7734 801H32.3744L51.7734 821Z" fill="#ABABAB"/>
<path d="M77.7734 821H62.1725L42.7734 801H58.3744L77.7734 821Z" fill="#ABABAB"/>
<path d="M103.773 821H88.1725L68.7734 801H84.3744L103.773 821Z" fill="#ABABAB"/>
<path d="M129.773 821H114.172L94.7734 801H110.374L129.773 821Z" fill="#ABABAB"/>
<defs>
<radialGradient id="paint0_radial_2159_73" cx="0" cy="0" r="1" gradientUnits="userSpaceOnUse" gradientTransform="translate(590.5 418.5) rotate(89.9186) scale(352 496.669)">
<stop stop-color="white" stop-opacity="0.75"/>
<stop offset="0.928655" stop-color="#24292F"/>
</radialGradient>
</defs>
</svg>
